<?xml version="1.0" encoding="UTF-8" standalone="no"?>
<svg
   width="21.984354mm"
   height="21.695833mm"
   viewBox="0 0 21.984354 21.695833"
   version="1.1"
   id="svg8"
   inkscape:version="1.4 (e7c3feb100, 2024-10-09)"
   sodipodi:docname="dibujo svg (Copiar).svg"
   xml:space="preserve"
   xmlns:inkscape="http://www.inkscape.org/namespaces/inkscape"
   xmlns:sodipodi="http://sodipodi.sourceforge.net/DTD/sodipodi-0.dtd"
   xmlns="http://www.w3.org/2000/svg"
   xmlns:svg="http://www.w3.org/2000/svg"
   xmlns:rdf="http://www.w3.org/1999/02/22-rdf-syntax-ns#"
   xmlns:cc="http://creativecommons.org/ns#"
   xmlns:dc="http://purl.org/dc/elements/1.1/"><defs
     id="defs2" /><sodipodi:namedview
     id="base"
     pagecolor="#ffffff"
     bordercolor="#666666"
     borderopacity="1.0"
     inkscape:pageopacity="0.0"
     inkscape:pageshadow="2"
     inkscape:zoom="5.6"
     inkscape:cx="44.196429"
     inkscape:cy="48.035714"
     inkscape:document-units="mm"
     inkscape:current-layer="layer1"
     inkscape:document-rotation="0"
     showgrid="false"
     inkscape:window-width="1920"
     inkscape:window-height="1011"
     inkscape:window-x="0"
     inkscape:window-y="0"
     inkscape:window-maximized="1"
     inkscape:showpageshadow="2"
     inkscape:pagecheckerboard="0"
     inkscape:deskcolor="#d1d1d1" /><metadata
     id="metadata5"><rdf:RDF><cc:Work
         rdf:about=""><dc:format>image/svg+xml</dc:format><dc:type
           rdf:resource="http://purl.org/dc/dcmitype/StillImage" /></cc:Work></rdf:RDF></metadata><g
     inkscape:label="Capa 1"
     inkscape:groupmode="layer"
     id="layer1"
     transform="translate(-93.764639,-137.41174)"><path
       id="path3"
       style="fill:#ffffff;fill-opacity:1;stroke-width:0.529167;paint-order:markers fill stroke"
       d="M -6.8864486 -65.020129 C -22.706586 -63.829153 -41.876812 -47.43909 -53.975533 -37.176727 C -66.074257 -26.914362 -85.374296 -10.674816 -89.130302 4.7390624 C -92.886308 20.152939 -83.224343 43.453193 -77.202966 58.131006 C -71.181588 72.808821 -61.697357 96.181851 -48.198557 104.51718 C -34.699759 112.8525 -9.5551393 110.85945 6.2649979 109.66847 C 22.085137 108.47749 47.243317 106.68214 59.342041 96.419771 C 71.440763 86.157408 77.31512 61.627893 81.071125 46.214017 C 84.827131 30.800138 90.897057 6.3179711 84.87568 -8.3598439 C 78.854303 -23.037657 57.33943 -36.205035 43.840632 -44.540358 C 30.341832 -52.875682 8.933691 -66.211105 -6.8864486 -65.020129 z M 20.776602 -13.753394 C 24.932204 -14.172931 28.292631 -14.390626 28.247816 -14.235783 C 28.204564 -14.084323 23.815635 -4.4366182 18.498323 7.2074172 C 13.181004 18.851372 8.8500205 28.568979 8.8710328 28.798965 C 8.8919718 29.029038 12.656998 34.739924 17.237375 41.492474 C 21.817753 48.245024 25.573226 53.891287 25.586202 54.036675 C 25.599199 54.182303 22.318223 54.59236 18.296056 54.951329 L 10.982533 55.604044 L 7.770692 50.937061 C -0.66210578 38.696118 -6.0261408 30.821297 -6.2107796 30.409007 C -6.3252496 30.15322 -2.1237926 20.569324 3.4030849 8.4791955 L 13.216876 -12.994889 L 20.776602 -13.753394 z M -28.340613 3.1986816 C -27.004852 3.0634512 -25.161092 2.9001856 -23.130181 2.7420447 L -15.746499 2.1710772 L -10.731623 9.384459 L -5.7167467 16.597841 L -10.663756 26.908897 L -15.610394 37.22411 L -22.886497 37.873485 C -26.889274 38.230724 -30.248635 38.415195 -30.347389 38.283708 C -30.445973 38.151395 -28.487882 33.837301 -25.997936 28.696525 C -23.507983 23.55583 -21.353513 19.025191 -21.209302 18.630103 C -20.98384 18.012284 -21.61453 16.910383 -25.714829 10.784538 C -28.337696 6.8656406 -30.489513 3.5858516 -30.497907 3.4917964 C -30.502108 3.4447286 -29.676373 3.3339121 -28.340613 3.1986816 z "
       transform="matrix(0.12330657,0.01100482,-0.01100482,0.12330657,105.0185,145.50545)" /></g></svg>
