<?xml version="1.0" encoding="UTF-8" standalone="no"?>
<!-- Created with Inkscape (http://www.inkscape.org/) -->

<svg
   version="1.1"
   id="svg1"
   width="73.537018"
   height="73.363182"
   viewBox="0 0 73.537018 73.363182"
   sodipodi:docname="k 2.svg"
   xml:space="preserve"
   inkscape:version="1.4 (e7c3feb100, 2024-10-09)"
   xmlns:inkscape="http://www.inkscape.org/namespaces/inkscape"
   xmlns:sodipodi="http://sodipodi.sourceforge.net/DTD/sodipodi-0.dtd"
   xmlns="http://www.w3.org/2000/svg"
   xmlns:svg="http://www.w3.org/2000/svg"><defs
     id="defs1" /><sodipodi:namedview
     id="namedview1"
     pagecolor="#ffffff"
     bordercolor="#000000"
     borderopacity="0.25"
     inkscape:showpageshadow="2"
     inkscape:pageopacity="0.0"
     inkscape:pagecheckerboard="0"
     inkscape:deskcolor="#d1d1d1"
     showguides="true"
     inkscape:zoom="1.5693582"
     inkscape:cx="36.639182"
     inkscape:cy="20.390501"
     inkscape:window-width="1920"
     inkscape:window-height="1011"
     inkscape:window-x="0"
     inkscape:window-y="0"
     inkscape:window-maximized="1"
     inkscape:current-layer="g1"><sodipodi:guide
       position="-1.1752218,483.71178"
       orientation="0,-1"
       id="guide2"
       inkscape:locked="false" /><sodipodi:guide
       position="49.352838,409.39693"
       orientation="0,-1"
       id="guide3"
       inkscape:locked="false" /></sodipodi:namedview><g
     inkscape:groupmode="layer"
     inkscape:label="Image"
     id="g1"
     transform="translate(-208.73146,-220.81838)"><g
       id="g3"><g
         id="g2"
         transform="matrix(0.27282726,0,0,0.27282726,178.52088,191.61219)"><rect
           style="fill:#ffffff;stroke-width:2;paint-order:markers fill stroke"
           id="rect1"
           width="269.53693"
           height="268.89975"
           x="110.73154"
           y="107.05013"
           ry="84.748024" /><path
           style="fill:#000000;stroke-width:0.853088"
           d="m 260.0015,320.96843 c -19.91183,-35.2467 -32.55685,-57.91266 -32.95765,-59.07592 -0.24831,-0.72041 13.46844,-25.69812 31.38794,-57.15648 l 31.82887,-55.87696 20.68072,-0.22862 c 11.37435,-0.12563 20.55043,0.0982 20.39116,0.49821 -0.15923,0.39978 -14.39731,25.51667 -31.64021,55.81528 -17.2429,30.2986 -31.34971,55.60285 -31.34848,56.23188 0.002,0.62879 8.8307,17.03731 19.62093,36.46334 10.79024,19.42615 19.61851,35.64542 19.61851,36.0428 0,0.39739 -8.99809,0.72255 -19.99571,0.72255 H 267.59187 Z M 159.67179,277.4071 c -0.2359,-0.38184 6.11571,-11.61043 14.11469,-24.95271 7.99891,-13.34228 14.94184,-25.10681 15.42866,-26.14339 0.76097,-1.62042 -0.68741,-4.75773 -10.32618,-22.36754 -6.16614,-11.26553 -11.21111,-20.69329 -11.21111,-20.95059 0,-0.25726 9.07741,-0.36503 20.17208,-0.23918 l 20.17209,0.22874 11.85314,20.78222 11.85317,20.78239 -15.91461,26.77705 -15.91454,26.77707 h -19.89915 c -10.9446,0 -20.09233,-0.31235 -20.32824,-0.69406 z"
           id="path1" /></g></g></g></svg>
